<svg width="30" height="12" viewBox="0 0 30 12" fill="none" xmlns="http://www.w3.org/2000/svg">
<rect width="30" height="12" rx="6" fill="#4464FF"/>
<path d="M11.5625 3.3125V9H10.3906L8.10547 5.1875V9H6.93359V3.3125H8.10547L10.3945 7.12891V3.3125H11.5625ZM16.3984 8.08594V9H13.3711V8.08594H16.3984ZM13.7539 3.3125V9H12.582V3.3125H13.7539ZM16.0039 5.62891V6.51953H13.3711V5.62891H16.0039ZM16.3945 3.3125V4.23047H13.3711V3.3125H16.3945ZM18.4531 8.09766L19.5859 3.3125H20.2188L20.3633 4.10938L19.1562 9H18.4766L18.4531 8.09766ZM17.8711 3.3125L18.8086 8.09766L18.7305 9H17.9727L16.7109 3.3125H17.8711ZM21.3594 8.07812L22.2852 3.3125H23.4453L22.1875 9H21.4297L21.3594 8.07812ZM20.5742 3.3125L21.7148 8.11719L21.6836 9H21.0039L19.7891 4.10547L19.9453 3.3125H20.5742Z" fill="white"/>
</svg>
