<svg width="16" height="16" viewBox="0 0 16 16" fill="none" xmlns="http://www.w3.org/2000/svg">
<path d="M13.4662 2.52935L13.4837 2.53372C13.5511 2.55749 13.6095 2.60157 13.6508 2.65989C13.6921 2.7182 13.7143 2.78789 13.7143 2.85933C13.7143 2.93077 13.6921 3.00045 13.6508 3.05877C13.6095 3.11709 13.5511 3.16117 13.4837 3.18494L12.6089 3.46903C12.343 3.55737 12.1013 3.70648 11.9031 3.9045C11.7049 4.10252 11.5557 4.34401 11.4673 4.60976L11.183 5.48388C11.175 5.50646 11.1648 5.52802 11.1525 5.54827C11.128 5.58844 11.0955 5.62342 11.0567 5.65086C10.9995 5.69132 10.9314 5.71342 10.8613 5.71426L10.8571 5.71429C10.7856 5.71429 10.7159 5.69213 10.6575 5.65086C10.5992 5.60959 10.5551 5.55125 10.5313 5.48388L10.247 4.60976C10.2048 4.48185 10.1486 4.35953 10.0796 4.2449C10.0049 4.12065 9.91508 4.00544 9.81198 3.90203C9.63949 3.729 9.43385 3.59313 9.2078 3.50227C9.1741 3.48872 9.13994 3.47618 9.10538 3.46466L8.23059 3.18057C8.16316 3.1568 8.10478 3.11272 8.06348 3.0544C8.02218 2.99608 8 2.9264 8 2.85496C8 2.78352 8.02218 2.71383 8.06348 2.65551C8.10478 2.5972 8.16316 2.55312 8.23059 2.52935L9.10538 2.24526C9.33021 2.16768 9.53707 2.04654 9.71429 1.88917C9.74414 1.86266 9.77316 1.83512 9.80127 1.80659C9.99628 1.6087 10.1428 1.36841 10.2295 1.10453L10.5138 0.230409C10.5376 0.163036 10.5817 0.104695 10.6401 0.0634281C10.6984 0.0221612 10.7682 0 10.8396 0C10.8455 0 10.8513 0.000147683 10.8571 0.000442505C10.9225 0.00375148 10.9857 0.025535 11.0392 0.0634281C11.0976 0.104695 11.1417 0.163036 11.1655 0.230409L11.4498 1.10453C11.5382 1.37028 11.6874 1.61176 11.8856 1.80979C11.9485 1.87258 12.0157 1.93046 12.0867 1.98304C12.2395 2.09626 12.4098 2.18493 12.5914 2.24526L13.4662 2.52935ZM15.8015 6.59491L15.1017 6.36764C14.8889 6.29696 14.6956 6.17768 14.5371 6.01926C14.3785 5.86084 14.2591 5.66765 14.1884 5.45505L13.961 4.75576C13.9419 4.70186 13.9067 4.65518 13.86 4.62217C13.8133 4.58916 13.7575 4.57143 13.7003 4.57143C13.6431 4.57143 13.5873 4.58916 13.5406 4.62217C13.4939 4.65518 13.4586 4.70186 13.4396 4.75576L13.2122 5.45505C13.1428 5.66616 13.0256 5.85839 12.8696 6.0167C12.7136 6.17501 12.523 6.29512 12.3129 6.36764L11.613 6.59491C11.5591 6.61392 11.5124 6.64919 11.4794 6.69584C11.4463 6.7425 11.4286 6.79824 11.4286 6.85539C11.4286 6.91255 11.4463 6.96829 11.4794 7.01495C11.5124 7.0616 11.5591 7.09687 11.613 7.11588L12.3129 7.34315C12.526 7.41418 12.7196 7.534 12.8782 7.69305C13.0367 7.8521 13.1559 8.04599 13.2262 8.25923L13.4536 8.95853C13.4726 9.01243 13.5079 9.0591 13.5546 9.09212C13.6013 9.12513 13.6571 9.14286 13.7143 9.14286C13.7715 9.14286 13.8273 9.12513 13.874 9.09212C13.9207 9.0591 13.9559 9.01243 13.975 8.95853L14.2024 8.25923C14.2731 8.04663 14.3925 7.85345 14.5511 7.69503C14.7096 7.53661 14.9029 7.41732 15.1157 7.34665L15.8155 7.11938C15.8695 7.10037 15.9162 7.0651 15.9492 7.01845C15.9823 6.97179 16 6.91604 16 6.85889C16 6.80174 15.9823 6.74599 15.9492 6.69934C15.9162 6.65268 15.8695 6.61742 15.8155 6.5984L15.8015 6.59491ZM2 2.28571C0.895431 2.28571 0 3.18114 0 4.28571V7.14286C0 8.24743 0.895431 9.14286 2 9.14286H4.85714C5.96171 9.14286 6.85714 8.24743 6.85714 7.14286V4.28571C6.85714 3.18114 5.96171 2.28571 4.85714 2.28571H2ZM1.14286 4.28571C1.14286 3.81233 1.52661 3.42857 2 3.42857H4.85714C5.33053 3.42857 5.71429 3.81233 5.71429 4.28571V7.14286C5.71429 7.61624 5.33053 8 4.85714 8H2C1.52661 8 1.14286 7.61624 1.14286 7.14286V4.28571ZM7.71429 10.2857C6.60972 10.2857 5.71429 11.1811 5.71429 12.2857V14C5.71429 15.1046 6.60972 16 7.71429 16H11.7143C12.8189 16 13.7143 15.1046 13.7143 14V12.2857C13.7143 11.1811 12.8189 10.2857 11.7143 10.2857H7.71429ZM6.85714 12.2857C6.85714 11.8123 7.2409 11.4286 7.71429 11.4286H11.7143C12.1877 11.4286 12.5714 11.8123 12.5714 12.2857V14C12.5714 14.4734 12.1877 14.8571 11.7143 14.8571H7.71429C7.2409 14.8571 6.85714 14.4734 6.85714 14V12.2857ZM0 12.2857C0 11.1811 0.89543 10.2857 2 10.2857H2.57143C3.676 10.2857 4.57143 11.1811 4.57143 12.2857V14C4.57143 15.1046 3.676 16 2.57143 16H2C0.895431 16 0 15.1046 0 14V12.2857ZM2 11.4286C1.52661 11.4286 1.14286 11.8123 1.14286 12.2857V14C1.14286 14.4734 1.52661 14.8571 2 14.8571H2.57143C3.04482 14.8571 3.42857 14.4734 3.42857 14V12.2857C3.42857 11.8123 3.04482 11.4286 2.57143 11.4286H2Z" fill="#174AE4"/>
</svg>
