<svg width="17" height="16" viewBox="0 0 17 16" fill="none" xmlns="http://www.w3.org/2000/svg">
<path fill-rule="evenodd" clip-rule="evenodd" d="M6.23129 0C5.88179 0 5.5486 0.0698993 5.23173 0.209698C4.91485 0.349496 4.63525 0.540555 4.39294 0.782872C4.15062 1.02519 3.95956 1.30479 3.81976 1.62166C3.67996 1.93854 3.60773 2.27406 3.60308 2.62821V7.91092L4.49779 8.79541V2.64918C4.49779 2.41619 4.54439 2.19484 4.63758 1.98514C4.73078 1.77544 4.85893 1.58904 5.02203 1.42595C5.18513 1.26285 5.37153 1.1347 5.58123 1.0415C5.79092 0.9483 6.0146 0.899371 6.25226 0.894711H13.4798C13.7128 0.894711 13.9342 0.94131 14.1439 1.03451C14.3536 1.12771 14.54 1.25586 14.7031 1.41896C14.8662 1.58205 14.9943 1.76845 15.0875 1.97815C15.1807 2.18785 15.2297 2.41153 15.2343 2.64918V9.84182C15.2343 10.0049 15.2133 10.1634 15.1714 10.3171C15.1295 10.4709 15.0666 10.6154 14.9827 10.7505L10.9705 6.73829C10.8213 6.58917 10.6536 6.47733 10.4672 6.40278C10.2808 6.32822 10.0804 6.28861 9.86605 6.28395C9.65635 6.28395 9.45831 6.32123 9.27191 6.39579C9.08551 6.47034 8.91542 6.58451 8.76164 6.73829L5.60749 9.89244L6.2402 10.5179L9.39074 7.36739C9.52121 7.23691 9.67965 7.17167 9.86605 7.17167C10.0524 7.17167 10.2109 7.23691 10.3414 7.36739L14.3536 11.3796C14.2184 11.4635 14.074 11.5264 13.9202 11.5683C13.7664 11.6103 13.608 11.6312 13.4449 11.6312H7.36637L7.69913 11.9602C7.8698 12.1289 8.01557 12.3194 8.13301 12.526H13.5008C13.8503 12.526 14.1835 12.4561 14.5004 12.3163C14.8173 12.1765 15.0968 11.9854 15.3392 11.7431C15.5815 11.5008 15.7725 11.2212 15.9123 10.9043C16.0521 10.5874 16.1244 10.2519 16.129 9.89774V2.62821C16.129 2.27872 16.0591 1.94553 15.9193 1.62865C15.7795 1.31178 15.5885 1.03218 15.3462 0.789862C15.1038 0.547544 14.8242 0.356486 14.5074 0.216688C14.1905 0.0768892 13.855 0.00465995 13.5008 0H6.23129ZM8.97134 4.0262C8.97134 3.84446 8.93639 3.67204 8.86649 3.50894C8.79659 3.34585 8.70106 3.20372 8.5799 3.08256C8.45875 2.9614 8.31429 2.86354 8.14653 2.78898C7.97877 2.71442 7.80635 2.67947 7.62927 2.68413C7.44754 2.68413 7.27512 2.71908 7.11202 2.78898C6.94892 2.85888 6.80679 2.95441 6.68563 3.07557C6.56448 3.19673 6.46662 3.34119 6.39206 3.50894C6.3175 3.6767 6.28255 3.84912 6.28721 4.0262C6.28721 4.20794 6.32216 4.38036 6.39206 4.54345C6.46196 4.70655 6.55748 4.84868 6.67864 4.96984C6.7998 5.091 6.94426 5.18886 7.11202 5.26342C7.27978 5.33798 7.4522 5.37293 7.62927 5.36827C7.81101 5.36827 7.98343 5.33332 8.14653 5.26342C8.30963 5.19352 8.45176 5.09799 8.57291 4.97683C8.69407 4.85567 8.79193 4.71121 8.86649 4.54345C8.94105 4.3757 8.976 4.20328 8.97134 4.0262ZM8.07663 4.0262C8.07663 4.14736 8.03236 4.25221 7.94382 4.34075C7.85528 4.42929 7.75043 4.47355 7.62927 4.47355C7.50812 4.47355 7.40327 4.42929 7.31473 4.34075C7.22619 4.25221 7.18192 4.14736 7.18192 4.0262C7.18192 3.90504 7.22619 3.80019 7.31473 3.71165C7.40327 3.62311 7.50812 3.57884 7.62927 3.57884C7.75043 3.57884 7.85528 3.62311 7.94382 3.71165C8.03236 3.80019 8.07663 3.90504 8.07663 4.0262ZM12.9931 14.3794C13.3427 14.4558 13.7593 14.321 14.0915 14.157C14.2834 14.0622 14.5268 14.2298 14.4168 14.412C14.2195 14.7392 13.862 15.0699 13.2192 15.1489C12.479 15.2398 11.9628 15.0133 11.4356 14.782C11.0744 14.6235 10.708 14.4627 10.2609 14.4002C10.1835 14.3894 10.1298 14.4812 10.1604 14.5524C10.297 14.871 10.2803 15.3505 9.87469 15.6635C9.40645 16.0248 7.89545 16.1198 6.88209 15.8268L5.77878 15.5542C5.42984 15.4679 5.11117 15.2896 4.85683 15.0381L0.494651 10.7258C-0.165035 10.0736 -0.165035 9.01627 0.494651 8.36411C1.15434 7.71196 2.2239 7.71196 2.88359 8.36411L7.24577 12.6765C7.5001 12.9279 7.68053 13.2429 7.76777 13.5879L8.10601 14.9254C8.11664 14.9675 8.12372 15.0092 8.12749 15.0505C8.54185 15.0618 8.88578 15.0269 9.13133 14.9717C9.1975 14.9569 9.22165 14.873 9.19054 14.8134C9.0283 14.5024 8.9806 13.8548 9.55561 13.626C10.332 13.3172 11.3422 13.7374 12.1412 14.0698C12.4718 14.2073 12.7663 14.3298 12.9931 14.3794Z" fill="#174AE4"/>
</svg>
